<?xml version="1.0" standalone="no"?>
<!DOCTYPE svg PUBLIC "-//W3C//DTD SVG 20010904//EN"
 "http://www.w3.org/TR/2001/REC-SVG-20010904/DTD/svg10.dtd">
<svg version="1.0" xmlns="http://www.w3.org/2000/svg"
 width="431.000000pt" height="117.000000pt" viewBox="0 0 431.000000 117.000000"
 preserveAspectRatio="xMidYMid meet">

<g transform="translate(0.000000,117.000000) scale(0.100000,-0.100000)"
fill="#000000" stroke="none">
<path d="M907 943 c-4 -3 -7 -13 -7 -20 0 -8 -24 -76 -54 -151 -30 -75 -73
-188 -96 -250 l-43 -113 -29 43 c-65 96 -144 291 -169 417 -6 34 -15 64 -20
67 -4 2 -16 -8 -25 -23 -9 -15 -45 -71 -80 -123 -100 -150 -115 -190 -215
-563 -20 -75 -44 -119 -83 -156 -14 -13 -23 -28 -20 -32 3 -5 27 -9 53 -9 l48
0 62 179 c80 235 152 391 180 391 14 0 40 -57 55 -123 9 -37 27 -89 40 -115
14 -27 35 -80 47 -118 25 -79 101 -187 128 -182 11 2 20 23 30 63 27 118 114
401 143 465 27 60 30 64 43 46 8 -10 28 -57 44 -105 16 -47 46 -124 65 -171
20 -47 45 -125 57 -175 31 -137 64 -164 196 -165 85 0 88 4 43 68 -30 43 -45
82 -65 159 -51 205 -204 600 -260 671 -24 30 -53 41 -68 25z"/>
<path d="M3483 758 c-4 -7 -11 -104 -14 -216 -3 -116 -10 -207 -16 -213 -7 -7
-28 14 -66 64 -52 69 -209 231 -243 250 -82 46 -264 75 -264 42 0 -16 27 -47
56 -63 18 -10 19 -31 24 -294 l5 -283 31 -3 31 -3 6 177 c3 101 10 181 16 187
7 7 22 2 48 -16 21 -14 69 -40 108 -58 89 -40 162 -103 215 -184 23 -36 46
-65 51 -65 26 0 51 258 64 675 0 15 -42 18 -52 3z"/>
<path d="M1638 746 c-118 -34 -180 -84 -225 -183 -23 -49 -43 -163 -30 -163 4
0 22 35 42 77 40 87 72 125 130 156 35 20 56 22 176 22 l136 0 57 -43 c65 -49
75 -70 83 -163 7 -81 -12 -126 -67 -163 -45 -30 -120 -49 -155 -40 -36 9 -77
61 -73 93 4 35 38 39 98 11 44 -21 49 -21 78 -6 45 23 58 71 38 140 -19 64
-53 108 -97 126 -36 15 -124 2 -216 -32 -61 -22 -170 -124 -205 -190 -62 -121
3 -245 169 -321 39 -17 67 -22 148 -22 94 0 105 2 169 34 70 34 170 121 149
128 -7 3 -45 -14 -85 -35 -112 -61 -215 -73 -289 -36 -42 21 -118 112 -130
156 -14 53 -5 100 34 172 39 72 84 100 163 101 48 0 57 -3 93 -39 47 -46 61
-90 37 -114 -15 -15 -19 -13 -54 21 -29 28 -46 37 -72 37 -82 -1 -136 -110
-95 -190 18 -35 68 -62 154 -85 57 -14 67 -15 114 -1 90 27 148 68 186 130 48
80 51 129 13 208 -40 84 -85 144 -124 164 -90 47 -271 73 -350 50z"/>
<path d="M2363 743 c-17 -6 -17 -33 0 -33 18 0 77 -62 77 -80 0 -8 -33 -55
-74 -104 -132 -160 -158 -219 -172 -403 -8 -99 1 -108 73 -72 42 21 48 28 51
60 3 31 10 40 65 76 75 49 181 103 202 103 8 0 15 -6 15 -13 0 -25 89 -197
105 -204 21 -7 93 25 111 51 12 18 11 24 -7 55 -12 20 -37 79 -56 131 -44 121
-85 195 -172 307 -57 74 -78 94 -119 111 -50 22 -75 25 -99 15z m163 -270 c44
-100 44 -102 -28 -149 -86 -57 -152 -94 -168 -94 -20 0 -7 76 25 148 26 59
109 152 135 152 6 0 22 -26 36 -57z"/>
<path d="M3793 743 c-17 -6 -17 -33 0 -33 18 0 77 -62 77 -80 0 -8 -33 -55
-74 -104 -132 -160 -159 -221 -173 -403 -7 -99 2 -108 74 -72 42 21 48 28 51
60 3 31 10 40 65 76 73 47 180 103 200 103 8 0 19 -17 25 -37 16 -54 82 -173
98 -180 19 -7 68 14 100 43 l26 25 -25 42 c-14 23 -39 83 -56 132 -40 112 -75
174 -164 294 -58 77 -79 98 -121 117 -49 23 -78 28 -103 17z m156 -255 c46
-109 47 -117 22 -136 -49 -36 -196 -122 -210 -122 -22 0 -7 89 27 157 28 55
109 143 132 143 6 0 19 -19 29 -42z"/>
</g>
</svg>
